# xmcd
# 
# Track frame offsets:
#     150
#     22539
#     44540
#     68184
#     89543
#     109443
#     129498
#     147438
#     168404
#     184517
#     206441
#     226693
#     233597
# 
# Disc length: 3398
# 
# Revision: 21
# Processed by: cddbd v1.5.2PL0 Copyright (c) Steve Scherf et al.
# Submitted via: fre:ac v1.0.17
# 
DISCID=a70d440d
DTITLE=宇多田ヒカル - Ultra Blue
DYEAR=2006
DGENRE=J-Pop
TTITLE0=This Is Love
TTITLE1=Keep Tryin'
TTITLE2=BLUE
TTITLE3=日曜の朝
TTITLE4=Making Love
TTITLE5=誰かの願いが叶うころ
TTITLE6=COLORS
TTITLE7=One Night Magic (feat. Yamada Masashi)
TTITLE8=海路
TTITLE9=WINGS
TTITLE10=Be My Last
TTITLE11=Eclipse (Interlude)
TTITLE12=Passion
EXTD=YEAR: 2006
EXTT0=
EXTT1=
EXTT2=
EXTT3=
EXTT4=
EXTT5=
EXTT6=
EXTT7=
EXTT8=
EXTT9=
EXTT10=
EXTT11=
EXTT12=
PLAYORDER=
